<?xml version="1.0" encoding="utf-8"?>
<!-- Generator: Adobe Illustrator 23.0.3, SVG Export Plug-In . SVG Version: 6.00 Build 0)  -->
<svg version="1.1" id="Capa_1" xmlns="http://www.w3.org/2000/svg" xmlns:xlink="http://www.w3.org/1999/xlink" x="0px" y="0px"
	 viewBox="0 0 384 384" style="enable-background:new 0 0 384 384;" xml:space="preserve">
<style type="text/css">
	.st0{fill:#616060;}
</style>
<g>
	<path class="st0" d="M380.5,192.6c0.7,103.3-84.6,188-187.8,188c-103.1,0-188-84.7-187.9-188C4.8,89.7,89.6,4.7,192.9,4.8
		C295.9,4.9,381.2,89.6,380.5,192.6z M212.1,261.9c0-17.4,0-34.7,0-52.1c0-6,0-6,5.9-6c9.9,0,19.7,0,29.6,0c2.3,0,3.8-0.5,4.2-3.1
		c1.5-12.3,3.1-24.5,4.6-36.8c0.6-4.8,1.3-4.7-4.5-4.7c-11.9,0-23.7,0-35.6,0c-2.4,0-4.2-0.3-4.1-3.4c0.1-10-0.2-20,0.2-30
		c0.5-11.3,6.2-16.8,17.5-18.2c8.4-1,16.7-0.4,25.1-0.5c2.7,0,3.7-0.9,3.7-3.7c-0.1-10.7-0.1-21.5,0-32.2c0-2.5-0.7-3.6-3.3-3.8
		c-14.4-1.3-28.9-2.5-43.3-0.5c-25.6,3.5-43.4,23.1-45.3,48.9c-0.9,12.5-0.4,25-0.6,37.5c-0.1,5.8,0,5.8-5.7,5.9
		c-9.7,0-19.5,0.1-29.2-0.1c-3,0-4.2,0.9-4.1,4c0.2,12.1,0.2,24.2,0,36.4c0,3.2,0.8,4.4,4.2,4.3c9.7-0.2,19.5-0.1,29.2-0.1
		c5.6,0,5.6,0,5.6,5.5c0,35.2,0,70.5-0.1,105.7c0,3.4,1,4.6,4.5,4.5c12.4-0.2,24.7-0.2,37.1,0c3.7,0.1,4.7-1.2,4.6-4.7
		C212,297.1,212.1,279.5,212.1,261.9z"/>
</g>
</svg>
