<svg xmlns="http://www.w3.org/2000/svg" viewBox="0 0 46.64 46.64"><defs><style>.cls-1{fill:none;}.cls-2{fill:#616060;}</style></defs><title>Recurso 1</title><g id="Capa_2" data-name="Capa 2"><g id="Capa_1-2" data-name="Capa 1"><line class="cls-1" x1="25.35" y1="19.68" x2="25.35" y2="21.27"/><path class="cls-2" d="M44.22,30.75a13.19,13.19,0,0,1-7.77,12L33.63,40A9.84,9.84,0,0,0,28,21.16l-.47.13H25.35V19.68a8.78,8.78,0,0,0,.29-1A9.85,9.85,0,0,0,6.78,13.13L3.86,10.21A13.08,13.08,0,0,1,6.34,6.49,13.22,13.22,0,0,1,29,17.67a13.36,13.36,0,0,1,2-.14A13.22,13.22,0,0,1,44.22,30.75Z"/><polygon class="cls-2" points="31.87 44.29 2.42 44.29 2.42 14.84 2.73 15.15 6.34 18.76 6.34 40.5 28.08 40.5 31.55 43.97 31.87 44.29"/><path class="cls-2" d="M46.64,46.64H0V0H46.64ZM1.3,45.33h44V1.3H1.3Z"/></g></g></svg>