<?xml version="1.0" encoding="utf-8"?>
<!-- Generator: Adobe Illustrator 23.0.3, SVG Export Plug-In . SVG Version: 6.00 Build 0)  -->
<svg version="1.1" id="Capa_1" xmlns="http://www.w3.org/2000/svg" xmlns:xlink="http://www.w3.org/1999/xlink" x="0px" y="0px"
	 viewBox="0 0 384 384" style="enable-background:new 0 0 384 384;" xml:space="preserve">
<style type="text/css">
	.st0{fill:#616060;}
</style>
<g>
	<path class="st0" d="M192.6,380.5c-103,0.6-187.9-84.7-187.8-188C4.9,89.6,89.7,4.7,193.1,4.8c103,0.2,188,85.1,187.6,188.7
		C380.2,296.3,295.7,381.3,192.6,380.5z M192.4,306.6c0,0.1,0,0.1,0,0.2c14.7,0,29.5,0,44.2,0c5.2,0,10.5-0.1,15.7-1
		c19.3-3.2,35.4-11.4,45.7-28.6c7-11.8,9.9-24.8,10-38.4c0.1-28.9,0-57.7,0.1-86.6c0-5.4,0-10.7-0.8-16.1
		c-1.6-11.8-5.2-22.9-12.4-32.6c-12.3-16.4-29.7-23.8-49.4-24.4c-32.2-0.9-64.5-0.3-96.7-0.4c-5.2,0-10.5,0.1-15.7,1
		c-17.4,2.8-32.5,9.8-43.1,24.6c-8.9,12.5-12.5,26.9-12.6,42.1c-0.2,28.4-0.1,56.7,0,85.1c0,6-0.1,12,0.8,18
		c1.7,11.9,5.3,23.2,12.7,32.8c12.3,16.2,29.6,23.2,49.1,24.1C157.4,307.2,175,306.6,192.4,306.6z"/>
	<path class="st0" d="M287.5,192.8c0,16.1,0.1,32.2-0.1,48.4c-0.1,8.6-2.4,16.8-6.8,24.3c-7.1,12.3-18.3,18.3-31.9,19.7
		c-18.5,2-37.2,1.4-55.8,1.5c-16.6,0.1-33.2-0.2-49.8-0.7c-27-0.8-44.6-18.8-45.2-45.8c-0.6-27.2-0.7-54.5-0.4-81.7
		c0.1-8.1,0.1-16.2,1.8-24.2c4.2-19.1,17.7-31.8,37.2-33.8c18.9-2,37.9-1.4,56.9-1.5c16.2-0.1,32.5,0.3,48.7,0.7
		c27.2,0.7,45.1,18.8,45.3,46C287.6,161.3,287.5,177.1,287.5,192.8L287.5,192.8z M132.2,192.5c0,33.6,26.9,60.7,60.4,60.8
		c33.4,0.1,60.7-26.8,60.8-60c0.1-33.8-26.7-61.1-60-61.1C159.4,132.1,132.2,158.9,132.2,192.5z M254.2,143.8
		c6.4,0,11.8-5.5,11.7-11.7c-0.1-6.3-5.5-11.7-11.8-11.8c-6.5-0.1-11.8,5.4-11.7,12C242.5,138.8,247.6,143.8,254.2,143.8z"/>
	<path class="st0" d="M232.6,192.6c0.1,21.7-18.1,40-39.8,40s-40-18.2-39.9-39.9c0-21.6,18-39.7,39.6-39.8
		C214.3,152.7,232.5,170.8,232.6,192.6z"/>
</g>
</svg>
