<?xml version="1.0" encoding="utf-8"?>
<!-- Generator: Adobe Illustrator 23.0.3, SVG Export Plug-In . SVG Version: 6.00 Build 0)  -->
<svg version="1.1" id="Capa_1" xmlns="http://www.w3.org/2000/svg" xmlns:xlink="http://www.w3.org/1999/xlink" x="0px" y="0px"
	 viewBox="0 0 384 384" style="enable-background:new 0 0 384 384;" xml:space="preserve">
<style type="text/css">
	.st0{fill:#616060;}
</style>
<g>
	<path class="st0" d="M192.6,380.5C89.5,381.1,4.5,295.7,4.8,192.1C5.1,89.5,89.7,4.7,193.1,4.8c103,0.2,188,85.1,187.5,188.8
		C380.2,296.3,295.7,381.3,192.6,380.5z M158.5,230.6c0,23.2,0,46.5,0,69.7c0,2.8,0.6,4,3.7,4c13-0.2,26-0.1,39,0
		c2.6,0,3.5-1,3.5-3.5c-0.1-5.6-0.1-11.2,0-16.9c0.3-21.1-0.7-42.2,0.6-63.3c1-16.1,9-25.7,23.2-27.8s24.1,3.8,27.8,16.7
		c1.5,5.3,2,10.8,2,16.3c0,24.7,0.1,49.5-0.1,74.2c0,3.3,1,4.3,4.3,4.3c12.2-0.2,24.5-0.1,36.7-0.1c5.2,0,5.2,0,5.2-5.1
		c0-25.2,0-50.5,0-75.7c0-8.9-0.2-17.7-1.7-26.5c-1.8-10.5-5.1-20.2-12-28.7c-12.8-15.7-43-18.4-58-12.3
		c-10.3,4.2-18.8,10.7-26.8,18.2c-0.7,0.6-1.3,1.9-2.4,1.2c-0.9-0.5-0.6-1.6-0.6-2.4c0-3.9-0.2-7.8,0-11.6c0.2-3.5-0.9-4.8-4.6-4.8
		c-11.7,0.2-23.5,0.2-35.2,0c-3.9-0.1-4.8,1.3-4.8,5C158.6,184.6,158.5,207.6,158.5,230.6z M130.2,229.9c0-23.4-0.1-46.7,0.1-70.1
		c0-3.4-0.9-4.6-4.4-4.6c-12.9,0.2-25.7,0.1-38.6,0c-3.3,0-4.5,0.9-4.5,4.5c0.1,46.9,0.1,93.7,0,140.6c0,3.1,0.9,4.1,4,4.1
		c12.9-0.1,25.7-0.1,38.6-0.1c4.8,0,4.8,0,4.8-5C130.2,276.1,130.2,253,130.2,229.9z M131.9,107.1c0.1-14.2-11.1-25.7-25.2-25.9
		C92.7,81,81.1,92.5,81,106.5c-0.1,14.4,10.9,25.9,25,25.9C120.6,132.6,131.8,121.6,131.9,107.1z"/>
</g>
</svg>
