<?xml version="1.0" encoding="utf-8"?>
<!-- Generator: Adobe Illustrator 23.0.3, SVG Export Plug-In . SVG Version: 6.00 Build 0)  -->
<svg version="1.1" id="Capa_1" xmlns="http://www.w3.org/2000/svg" xmlns:xlink="http://www.w3.org/1999/xlink" x="0px" y="0px"
	 viewBox="0 0 234.8 50.4" style="enable-background:new 0 0 234.8 50.4;" xml:space="preserve">
<style type="text/css">
	.st0{fill:#FFFFFF;}
</style>
<g>
	<g>
		<g>
			<g>
				<path class="st0" d="M47.7,33.2c0,4.2-1.8,7.9-4.6,10.5c-1.1,1-2.4,1.9-3.8,2.5l-3-3c4.2-1.4,7.2-5.4,7.2-10.1
					c0-5.9-4.8-10.6-10.6-10.6c-0.9,0-1.9,0.1-2.7,0.4c-0.2,0-0.3,0.1-0.5,0.1h-2.3v-1.7c0.1-0.4,0.2-0.7,0.3-1.1
					c0.2-0.7,0.3-1.5,0.3-2.3c0-5.9-4.8-10.6-10.6-10.6c-4.6,0-8.5,2.9-10,7L4.2,11c0.7-1.5,1.6-2.8,2.7-4c2.6-2.8,6.3-4.5,10.4-4.5
					c7.9,0,14.3,6.4,14.3,14.3c0,0.8-0.1,1.5-0.2,2.3c0.7-0.1,1.4-0.2,2.1-0.2C41.3,18.9,47.7,25.3,47.7,33.2z"/>
				<g>
					<polygon class="st0" points="34.4,47.8 2.6,47.8 2.6,16 2.9,16.4 6.8,20.3 6.8,43.7 30.3,43.7 34.1,47.5 					"/>
				</g>
			</g>
		</g>
		<path class="st0" d="M50.4,50.4H0V0h50.4V50.4z M1.4,48.9h47.5V1.4H1.4V48.9z"/>
	</g>
	<g>
		<path class="st0" d="M56,5.5c0.1,0,0.4,0,0.8,0c0.4,0,0.9,0,1.4,0c0.5,0,1,0,1.4,0c0.5,0,0.8,0,1.1,0c1.9,0,3.4,0.4,4.3,1.1
			c1,0.7,1.5,1.7,1.5,2.9c0,0.8-0.2,1.4-0.7,2c-0.5,0.6-1.2,1-2.2,1.4c1.1,0.3,2,0.8,2.5,1.4c0.6,0.6,0.8,1.4,0.8,2.3
			c0,2.9-2.2,4.3-6.5,4.3c-0.2,0-0.5,0-1,0c-0.4,0-0.9,0-1.3,0c-0.5,0-0.9,0-1.3,0c-0.4,0-0.7,0-0.8,0V5.5z M59.7,11.9h1
			c0.5,0,0.9-0.1,1.3-0.4c0.4-0.3,0.6-0.8,0.6-1.6c0-0.6-0.1-1.1-0.4-1.5c-0.3-0.4-0.8-0.5-1.5-0.5c-0.2,0-0.4,0-0.6,0
			c-0.2,0-0.3,0-0.4,0V11.9z M59.7,18.4h1.1c0.3,0,0.6,0,0.8-0.1c0.3-0.1,0.5-0.2,0.7-0.3c0.2-0.1,0.4-0.3,0.5-0.6
			c0.1-0.2,0.2-0.6,0.2-0.9c0-0.3,0-0.6-0.1-0.8c-0.1-0.3-0.2-0.5-0.4-0.7c-0.2-0.2-0.4-0.4-0.7-0.5c-0.3-0.1-0.7-0.2-1.1-0.2
			c-0.2,0-0.4,0-0.6,0c-0.2,0-0.3,0-0.4,0V18.4z"/>
		<path class="st0" d="M70.7,5.5h9.8v2.7h-6v3.3h5L79,14.2h-4.6v3.9h6.3v2.7H70.7V5.5z"/>
		<path class="st0" d="M88.6,5.5h3.3l5.6,15.3h-3.8l-1.1-3.7h-5l-1.2,3.7h-3.7L88.6,5.5z M91.8,14.4c-0.2-0.4-0.3-0.9-0.5-1.4
			c-0.2-0.5-0.3-0.9-0.5-1.4c-0.1-0.5-0.3-0.9-0.4-1.3c-0.1-0.4-0.2-0.7-0.3-1c-0.1,0.3-0.2,0.6-0.3,1c-0.1,0.4-0.3,0.8-0.4,1.3
			c-0.1,0.5-0.3,0.9-0.5,1.4c-0.2,0.5-0.3,0.9-0.5,1.4H91.8z"/>
		<path class="st0" d="M109.3,5.5l-0.5,2.7h-3.5v12.6h-3.7V8.2h-3.6V5.5H109.3z"/>
		<path class="st0" d="M112.4,5.5c0.1,0,0.4,0,0.8,0c0.4,0,0.9,0,1.4,0c0.5,0,1,0,1.4,0c0.5,0,0.8,0,1.1,0c1.9,0,3.4,0.4,4.3,1.1
			c1,0.7,1.4,1.8,1.4,3.3c0,1-0.2,1.8-0.7,2.4c-0.5,0.6-1.1,1.1-1.9,1.5c0.5,0.3,0.9,0.6,1.2,1c0.3,0.4,0.7,0.9,1,1.5
			c0.3,0.6,0.6,1.3,1,2c0.3,0.8,0.7,1.6,1.1,2.5h-4c-0.5-1.1-0.9-2-1.2-2.8c-0.3-0.8-0.6-1.5-0.9-2c-0.3-0.6-0.6-1-0.8-1.2
			c-0.3-0.3-0.6-0.4-1-0.4h-0.4v6.5h-3.7V5.5z M116.2,12h1c0.5,0,1-0.2,1.3-0.5c0.4-0.3,0.6-0.8,0.6-1.5c0-0.3,0-0.6-0.1-0.8
			c-0.1-0.2-0.2-0.5-0.3-0.7c-0.2-0.2-0.4-0.3-0.6-0.5c-0.3-0.1-0.6-0.2-1-0.2h-0.8V12z"/>
		<path class="st0" d="M127.7,5.5h3.7v15.3h-3.7V5.5z"/>
		<path class="st0" d="M135.3,20.8v-2.5l6.2-9.7c-0.3,0-0.6,0-0.9,0c-0.3,0-0.6,0-0.9,0h-3.9l-0.6-3.1H146v2.6l-6.1,9.7
			c0.2,0,0.5,0,0.7,0c0.3,0,0.5,0,0.8,0h4.9v3.1H135.3z"/>
		<path class="st0" d="M56.2,28.1h2.7v13.3h5.7v2h-8.4V28.1z"/>
		<path class="st0" d="M76.3,28.5c0.8,0.4,1.5,0.9,2,1.5c0.5,0.7,0.9,1.5,1.1,2.4c0.2,1,0.4,2,0.4,3.2c0,1.2-0.1,2.3-0.4,3.2
			c-0.3,1-0.7,1.8-1.2,2.5c-0.6,0.7-1.2,1.2-2.1,1.6c-0.8,0.4-1.8,0.6-3,0.6c-1.1,0-2.1-0.2-2.9-0.5c-0.8-0.3-1.5-0.8-2-1.5
			c-0.5-0.7-0.9-1.5-1.1-2.4c-0.2-0.9-0.4-2-0.4-3.2c0-1.2,0.1-2.3,0.4-3.2c0.3-1,0.7-1.8,1.2-2.6c0.6-0.7,1.2-1.3,2.1-1.7
			c0.8-0.4,1.8-0.6,3-0.6C74.6,27.9,75.5,28.1,76.3,28.5z M71.5,30.5c-0.4,0.3-0.8,0.7-1.1,1.2c-0.3,0.5-0.5,1.1-0.6,1.8
			c-0.1,0.7-0.2,1.4-0.2,2.3c0,0.8,0.1,1.5,0.2,2.2c0.1,0.7,0.3,1.3,0.6,1.8c0.3,0.5,0.7,1,1.2,1.3c0.5,0.3,1.1,0.5,1.9,0.5
			c0.6,0,1.2-0.1,1.6-0.4c0.4-0.3,0.8-0.7,1.1-1.2c0.3-0.5,0.5-1.1,0.6-1.8c0.1-0.7,0.2-1.4,0.2-2.2c0-0.8-0.1-1.5-0.2-2.2
			c-0.1-0.7-0.3-1.3-0.6-1.9c-0.3-0.5-0.7-1-1.2-1.3c-0.5-0.3-1.1-0.5-1.9-0.5C72.5,30,71.9,30.2,71.5,30.5z M72.6,25.9l5.1-3.4
			l1.2,1.9c-0.5,0.5-1.1,0.9-1.8,1.3s-1.3,0.7-1.9,0.9c-0.6,0.2-1.1,0.4-1.5,0.5l-0.6,0.2L72.6,25.9z"/>
		<path class="st0" d="M84.7,28.1c0.1,0,0.3,0,0.7,0c0.4,0,0.8,0,1.3,0c0.5,0,0.9,0,1.4,0c0.5,0,0.9,0,1.2,0c1.8,0,3.2,0.4,4.1,1.2
			c0.9,0.8,1.3,1.9,1.3,3.4c0,0.7-0.1,1.3-0.4,1.9c-0.2,0.6-0.6,1.1-1.1,1.5c-0.5,0.4-1.1,0.8-1.8,1c-0.7,0.2-1.5,0.4-2.5,0.4h-1.6
			v6h-2.7V28.1z M87.4,35.4h1.7c1,0,1.6-0.2,2-0.7c0.4-0.5,0.6-1.1,0.6-1.9c0-0.3,0-0.7-0.1-1c-0.1-0.3-0.2-0.6-0.5-0.9
			c-0.2-0.3-0.5-0.5-0.9-0.6c-0.4-0.2-0.8-0.2-1.4-0.2c-0.3,0-0.6,0-0.9,0c-0.2,0-0.5,0-0.6,0V35.4z"/>
		<path class="st0" d="M99.1,28.1h9.1v2h-6.4v4.3h5.3l-0.3,2.1h-4.9v4.9h6.7v2h-9.4V28.1z"/>
		<path class="st0" d="M112.2,43.5v-1.6l6.7-11.7c-0.3,0-0.6,0-0.9,0.1c-0.3,0-0.7,0-1,0h-4.3l-0.4-2.1h10v1.6l-6.5,11.7
			c0.3,0,0.5,0,0.8,0c0.3,0,0.6,0,0.9,0h5.1v2.1H112.2z"/>
		<path class="st0" d="M139.6,27.9c0.5,0,1,0,1.5,0.1c0.5,0.1,0.9,0.2,1.3,0.3c0.4,0.1,0.7,0.3,1,0.4c0.3,0.1,0.5,0.2,0.6,0.3
			l-1.1,1.9l-0.3-0.2c-0.2-0.1-0.5-0.2-0.8-0.4c-0.3-0.1-0.7-0.3-1-0.4c-0.4-0.1-0.7-0.2-1.1-0.2c-0.5,0-1,0.1-1.4,0.4
			c-0.4,0.3-0.6,0.7-0.6,1.2c0,0.7,0.2,1.2,0.7,1.7c0.4,0.4,1.1,0.8,2.1,1.2c0.6,0.2,1.1,0.5,1.6,0.8c0.5,0.3,0.9,0.6,1.2,0.9
			c0.3,0.3,0.6,0.7,0.8,1.2c0.2,0.5,0.3,1,0.3,1.6c0,0.6-0.1,1.1-0.3,1.7c-0.2,0.6-0.5,1.1-1,1.5c-0.4,0.4-1,0.8-1.6,1
			c-0.6,0.3-1.4,0.4-2.2,0.4c-0.6,0-1.1-0.1-1.7-0.2c-0.5-0.1-1-0.3-1.4-0.4c-0.4-0.2-0.8-0.3-1.1-0.5c-0.3-0.2-0.5-0.3-0.7-0.4
			l1-2.1l0.4,0.2c0.3,0.2,0.6,0.3,1,0.5c0.4,0.2,0.8,0.3,1.2,0.5c0.4,0.2,0.8,0.2,1.1,0.2c0.8,0,1.4-0.2,1.8-0.6
			c0.4-0.4,0.6-0.9,0.6-1.7c0-0.3-0.1-0.6-0.2-0.9c-0.1-0.2-0.3-0.5-0.5-0.6c-0.2-0.2-0.4-0.3-0.7-0.5c-0.3-0.1-0.6-0.3-0.9-0.4
			c-0.7-0.3-1.3-0.6-1.8-0.9c-0.5-0.3-1-0.6-1.4-1c-0.4-0.4-0.7-0.8-0.9-1.3c-0.2-0.5-0.3-1-0.3-1.7c0-0.6,0.1-1.1,0.4-1.6
			c0.2-0.5,0.6-0.9,1-1.3c0.4-0.4,0.9-0.7,1.5-0.9C138.2,28,138.9,27.9,139.6,27.9z"/>
		<path class="st0" d="M152.6,28.1h2.1l5.9,15.3h-2.9l-1.4-4h-5.5l-1.4,4h-2.7L152.6,28.1z M155.7,37.5c-0.5-1.4-0.9-2.6-1.2-3.7
			c-0.3-1.1-0.6-2-0.8-2.6c-0.2,0.7-0.5,1.6-0.8,2.7c-0.3,1.1-0.8,2.3-1.2,3.6H155.7z"/>
		<path class="st0" d="M164.4,28.1h2.7v13.3h5.7v2h-8.4V28.1z"/>
		<path class="st0" d="M181.5,28.1h2.1l5.9,15.3h-2.9l-1.4-4h-5.5l-1.4,4h-2.7L181.5,28.1z M184.6,37.5c-0.5-1.4-0.9-2.6-1.2-3.7
			c-0.3-1.1-0.6-2-0.8-2.6c-0.2,0.7-0.5,1.6-0.8,2.7c-0.3,1.1-0.8,2.3-1.2,3.6H184.6z"/>
		<path class="st0" d="M192.6,43.5v-1.6l6.7-11.7c-0.3,0-0.6,0-0.9,0.1c-0.3,0-0.7,0-1,0H193l-0.4-2.1h10v1.6l-6.5,11.7
			c0.3,0,0.5,0,0.8,0c0.3,0,0.6,0,0.9,0h5.1v2.1H192.6z"/>
		<path class="st0" d="M211.7,28.1h2.1l5.9,15.3h-2.9l-1.4-4h-5.5l-1.4,4h-2.7L211.7,28.1z M214.7,37.5c-0.5-1.4-0.9-2.6-1.2-3.7
			c-0.3-1.1-0.6-2-0.8-2.6c-0.2,0.7-0.5,1.6-0.8,2.7c-0.3,1.1-0.8,2.3-1.2,3.6H214.7z"/>
		<path class="st0" d="M223.4,28.1c0.1,0,0.3,0,0.7,0c0.4,0,0.8,0,1.3,0c0.5,0,0.9,0,1.4,0c0.5,0,0.9,0,1.2,0c1.9,0,3.2,0.4,4.1,1.1
			c0.9,0.7,1.3,1.8,1.3,3.1c0,0.9-0.2,1.7-0.7,2.3c-0.4,0.7-1.2,1.2-2.1,1.5c0.4,0.2,0.8,0.6,1.1,1c0.3,0.4,0.7,0.9,1,1.5
			s0.6,1.3,1,2.1c0.3,0.8,0.7,1.7,1.2,2.7h-2.9c-0.5-1.2-1-2.2-1.3-3.1c-0.4-0.8-0.8-1.5-1.1-2.1c-0.4-0.5-0.8-0.9-1.2-1.2
			c-0.4-0.2-0.9-0.4-1.5-0.4h-0.7v6.6h-2.7V28.1z M226.1,34.9h1.7c0.8,0,1.5-0.2,2-0.6c0.5-0.4,0.7-0.9,0.7-1.7c0-0.3,0-0.7-0.1-1
			c-0.1-0.3-0.2-0.6-0.5-0.8c-0.2-0.2-0.5-0.4-0.9-0.6c-0.4-0.1-0.8-0.2-1.4-0.2h-1.5V34.9z"/>
	</g>
</g>
</svg>
