<svg xmlns="http://www.w3.org/2000/svg" viewBox="0 0 217.45 46.64"><defs><style>.cls-1{fill:#616060;}</style></defs><title>Recurso 1</title><g id="Capa_2" data-name="Capa 2"><g id="Vínculos_Forma" data-name="Vínculos &amp; Forma"><line class="cls-1" x1="25.35" y1="19.68" x2="25.35" y2="21.27"/><path class="cls-1" d="M44.22,30.75a13.19,13.19,0,0,1-7.77,12L33.63,40a9.84,9.84,0,0,0-3.14-19.17,9.54,9.54,0,0,0-2.53.33l-.47.13H25.35V19.68a8.7,8.7,0,0,0,.29-1A9.85,9.85,0,0,0,6.78,13.13L3.86,10.21A13,13,0,0,1,6.34,6.49,13.22,13.22,0,0,1,29,17.67a13,13,0,0,1,2-.14A13.22,13.22,0,0,1,44.22,30.75Z"/><polygon class="cls-1" points="31.87 44.29 2.42 44.29 2.42 14.84 2.73 15.15 6.34 18.76 6.34 40.5 28.08 40.5 31.55 43.97 31.87 44.29"/><path class="cls-1" d="M46.64,46.64H0V0H46.64ZM1.3,45.33h44V1.3H1.3Z"/><path class="cls-1" d="M51.86,5.1h4.36a6.68,6.68,0,0,1,4,1,3.16,3.16,0,0,1,1.35,2.69,2.85,2.85,0,0,1-.68,1.89,4.28,4.28,0,0,1-2,1.25,4.88,4.88,0,0,1,2.34,1.34,3.1,3.1,0,0,1,.76,2.1q0,4-6,4H51.86Zm3.46,6h1a1.9,1.9,0,0,0,1.17-.4A1.76,1.76,0,0,0,58,9.21a2.09,2.09,0,0,0-.41-1.37,1.65,1.65,0,0,0-1.35-.49h-.51a1.79,1.79,0,0,0-.37,0Zm0,6h1a3.27,3.27,0,0,0,.78-.09,1.62,1.62,0,0,0,.64-.28,1.29,1.29,0,0,0,.43-.54,2.18,2.18,0,0,0,.16-.87,2.81,2.81,0,0,0-.11-.77,1.78,1.78,0,0,0-.35-.65,1.76,1.76,0,0,0-.66-.45,2.72,2.72,0,0,0-1-.17h-.53l-.39,0Z"/><path class="cls-1" d="M65.46,5.1h9V7.64H68.92v3h4.63l-.4,2.49H68.92v3.58h5.86v2.54H65.46Z"/><path class="cls-1" d="M82.08,5.1h3.08l5.19,14.19h-3.5l-1-3.42H81.22l-1.09,3.42H76.69Zm3,8.22-.43-1.27q-.22-.66-.42-1.29l-.36-1.18c-.12-.37-.21-.68-.3-.93l-.29.95c-.11.37-.24.76-.37,1.18s-.27.85-.42,1.28-.29.85-.43,1.26Z"/><path class="cls-1" d="M101.21,5.1l-.44,2.54H97.5V19.29H94V7.64H90.67V5.1Z"/><path class="cls-1" d="M104.12,5.1h4.36a6.59,6.59,0,0,1,4,1,3.6,3.6,0,0,1,1.34,3,3.62,3.62,0,0,1-.65,2.21,4.22,4.22,0,0,1-1.76,1.35,4,4,0,0,1,1.11.94,8.5,8.5,0,0,1,.92,1.42c.3.55.59,1.18.89,1.89s.64,1.5,1,2.35h-3.71c-.45-1-.82-1.84-1.13-2.59s-.59-1.37-.86-1.88a4.92,4.92,0,0,0-.79-1.16,1.27,1.27,0,0,0-.93-.38h-.35v6h-3.46Zm3.46,6h.88a1.82,1.82,0,0,0,1.24-.45,1.8,1.8,0,0,0,.52-1.42,2.94,2.94,0,0,0-.1-.74,1.66,1.66,0,0,0-.3-.61,1.53,1.53,0,0,0-.58-.42,2.33,2.33,0,0,0-.89-.15h-.77Z"/><path class="cls-1" d="M118.24,5.1h3.46V19.29h-3.46Z"/><path class="cls-1" d="M125.32,19.29V16.94l5.74-9q-.39,0-.81,0l-.84,0h-3.63l-.52-2.88h9.93V7.47l-5.66,9,.7,0h5.23v2.87Z"/><path class="cls-1" d="M52,26.06h2.49v12.3h5.3v1.88H52Z"/><path class="cls-1" d="M70.7,26.37a4.79,4.79,0,0,1,1.83,1.43,5.87,5.87,0,0,1,1.06,2.25,12.42,12.42,0,0,1,.34,3,11.52,11.52,0,0,1-.37,3,6.53,6.53,0,0,1-1.13,2.32,5.17,5.17,0,0,1-1.93,1.49,6.5,6.5,0,0,1-2.76.54,7,7,0,0,1-2.69-.47,4.57,4.57,0,0,1-1.84-1.39,5.76,5.76,0,0,1-1.06-2.21,12,12,0,0,1-.34-3,11.87,11.87,0,0,1,.37-3A6.86,6.86,0,0,1,63.31,28a5.25,5.25,0,0,1,1.94-1.54,7.4,7.4,0,0,1,5.45,0Zm-4.51,1.84a3,3,0,0,0-1,1.12A5.56,5.56,0,0,0,64.67,31a13.74,13.74,0,0,0-.15,2.1,14.6,14.6,0,0,0,.14,2,5.39,5.39,0,0,0,.54,1.7A3,3,0,0,0,66.27,38a3.22,3.22,0,0,0,1.77.44,2.73,2.73,0,0,0,1.52-.4,2.9,2.9,0,0,0,1-1.09,5.36,5.36,0,0,0,.54-1.64,13.3,13.3,0,0,0,.15-2.06,15.15,15.15,0,0,0-.14-2.06,5.72,5.72,0,0,0-.54-1.74,3.1,3.1,0,0,0-1.07-1.2,3.14,3.14,0,0,0-1.77-.45A2.65,2.65,0,0,0,66.19,28.21Zm1-4.23L72,20.8l1.09,1.72a8.6,8.6,0,0,1-1.65,1.17,15.82,15.82,0,0,1-1.72.84c-.53.22-1,.39-1.35.5l-.54.17Z"/><path class="cls-1" d="M78.43,26.06h4.21a5.35,5.35,0,0,1,3.77,1.14,4.08,4.08,0,0,1,1.22,3.13,4.47,4.47,0,0,1-.34,1.77,3.7,3.7,0,0,1-1,1.39,4.58,4.58,0,0,1-1.64.92,7.36,7.36,0,0,1-2.27.32H80.92v5.55H78.43Zm2.49,6.77h1.62a2.26,2.26,0,0,0,1.88-.7A2.66,2.66,0,0,0,85,30.37a3.33,3.33,0,0,0-.13-.94A2.07,2.07,0,0,0,83.62,28a3.28,3.28,0,0,0-1.29-.22h-.81a5.44,5.44,0,0,0-.6,0Z"/><path class="cls-1" d="M91.74,26.06h8.42v1.88H94.23v4h4.88l-.31,1.91H94.23v4.55h6.24v1.88H91.74Z"/><path class="cls-1" d="M104,40.24V38.76l6.16-10.82c-.28,0-.56,0-.86.06h-4.94l-.34-2h9.22v1.49l-6,10.79c.23,0,.48,0,.73,0l.82,0h4.73v2Z"/><path class="cls-1" d="M129.26,25.87a6.49,6.49,0,0,1,1.41.14,11.4,11.4,0,0,1,1.22.31,7,7,0,0,1,1,.37,4.17,4.17,0,0,1,.53.29l-1,1.8-.27-.14c-.18-.1-.42-.21-.71-.34a7.85,7.85,0,0,0-1-.34,4,4,0,0,0-1-.14,2.44,2.44,0,0,0-1.31.35,1.23,1.23,0,0,0-.56,1.11,2.07,2.07,0,0,0,.61,1.54,5.55,5.55,0,0,0,1.91,1.1,13.21,13.21,0,0,1,1.5.71,4.41,4.41,0,0,1,1.12.85,3.37,3.37,0,0,1,.7,1.11,4.21,4.21,0,0,1,.24,1.5,4.34,4.34,0,0,1-.3,1.58,4.29,4.29,0,0,1-.9,1.37,4.51,4.51,0,0,1-1.48,1,5.18,5.18,0,0,1-2,.37,7.1,7.1,0,0,1-1.56-.17,10.51,10.51,0,0,1-1.33-.39,6.59,6.59,0,0,1-1-.45l-.64-.35.88-1.93.38.21c.25.14.55.29.92.46a11,11,0,0,0,1.15.46,3.3,3.3,0,0,0,1,.21,2.25,2.25,0,0,0,1.65-.54,2.07,2.07,0,0,0,.55-1.53,2,2,0,0,0-.15-.81,1.81,1.81,0,0,0-.42-.6,2.73,2.73,0,0,0-.66-.45q-.39-.2-.87-.39c-.63-.26-1.19-.53-1.68-.79a5.66,5.66,0,0,1-1.27-.91,3.58,3.58,0,0,1-.8-1.18,4.14,4.14,0,0,1-.27-1.58,3.32,3.32,0,0,1,.33-1.46,4,4,0,0,1,.93-1.19,4.7,4.7,0,0,1,1.4-.82A5.23,5.23,0,0,1,129.26,25.87Z"/><path class="cls-1" d="M141.35,26.06h2l5.47,14.18h-2.66l-1.3-3.71h-5.11l-1.34,3.71H135.9Zm2.83,8.63c-.45-1.26-.83-2.4-1.15-3.43s-.57-1.83-.73-2.42l-.78,2.48c-.32,1-.7,2.14-1.13,3.37Z"/><path class="cls-1" d="M152.25,26.06h2.49v12.3H160v1.88h-7.79Z"/><path class="cls-1" d="M168.11,26.06h2l5.47,14.18h-2.66l-1.3-3.71h-5.11l-1.35,3.71h-2.47Zm2.83,8.63c-.45-1.26-.83-2.4-1.15-3.43s-.57-1.83-.74-2.42c-.19.63-.45,1.46-.77,2.48s-.7,2.14-1.13,3.37Z"/><path class="cls-1" d="M178.38,40.24V38.76l6.16-10.82c-.28,0-.57,0-.86.06h-5l-.33-2h9.22v1.49l-6,10.79c.24,0,.48,0,.74,0l.81,0h4.74v2Z"/><path class="cls-1" d="M196,26.06h2l5.47,14.18h-2.66l-1.3-3.71h-5.11l-1.35,3.71h-2.47Zm2.83,8.63c-.45-1.26-.83-2.4-1.15-3.43s-.57-1.83-.74-2.42c-.19.63-.45,1.46-.77,2.48s-.7,2.14-1.13,3.37Z"/><path class="cls-1" d="M206.94,26.06h4.21a5.84,5.84,0,0,1,3.79,1,3.54,3.54,0,0,1,1.19,2.86,3.94,3.94,0,0,1-.6,2.16,3.45,3.45,0,0,1-2,1.36,3.61,3.61,0,0,1,1,.92,9,9,0,0,1,.9,1.44c.3.57.6,1.22.91,2s.66,1.58,1.06,2.5h-2.7c-.47-1.1-.89-2-1.25-2.83a12.82,12.82,0,0,0-1-1.9,3.52,3.52,0,0,0-1.08-1.07A2.71,2.71,0,0,0,210,34.1h-.61v6.14h-2.49Zm2.49,6.22H211a2.82,2.82,0,0,0,1.82-.52,1.91,1.91,0,0,0,.63-1.55,3.37,3.37,0,0,0-.12-.9,2,2,0,0,0-.43-.78,2.12,2.12,0,0,0-.82-.53,3.43,3.43,0,0,0-1.29-.2h-1.4Z"/></g></g></svg>