<?xml version="1.0" encoding="utf-8"?>
<!-- Generator: Adobe Illustrator 23.0.3, SVG Export Plug-In . SVG Version: 6.00 Build 0)  -->
<svg version="1.1" id="Capa_1" xmlns="http://www.w3.org/2000/svg" xmlns:xlink="http://www.w3.org/1999/xlink" x="0px" y="0px"
	 viewBox="0 0 384 384" style="enable-background:new 0 0 384 384;" xml:space="preserve">
<g>
	<path d="M192.7,127c-42,0-84,0-125.9,0c-12.3,0-20.6-10.7-17.9-22.6c1.9-8.2,8.9-13.9,17.7-13.9c30.5,0,61,0,91.5,0
		c53.6,0,107.2,0,160.8,0c7.7,0,13.3,3.4,16.5,10.2c3.1,6.5,2.6,13.2-1.8,19.1c-3.7,5.1-8.9,7.2-15.3,7.2
		C276.4,127,234.5,127,192.7,127z"/>
	<path d="M192.3,211c-41.9,0-83.7,0-125.6,0c-12.3,0-20.6-10.6-18-22.6c1.8-8.2,8.9-13.9,17.7-13.9c27.2,0,54.5,0,81.7,0
		c56.7,0,113.4,0,170.2,0c11.4,0,18.8,7.5,18.7,18.8c-0.1,9.9-7.7,17.6-17.6,17.6c-16.5,0.1-33,0-49.5,0
		C244.1,211,218.2,211,192.3,211z"/>
	<path d="M192.7,258.5c42.1,0,84.2,0,126.3,0c7.5,0,13.1,3.4,16.2,10.1c3.1,6.5,2.7,13.2-1.7,19.2c-3.5,4.8-8.4,7.3-14.5,7.3
		c-18.2,0-36.5,0-54.7,0c-65.3,0-130.7,0-196,0c-3.9,0-7.7-0.3-11.2-2.5c-7.1-4.4-10.4-12.6-8.2-20.8c2.1-8,8.8-13.2,17.4-13.3
		C108.5,258.5,150.6,258.5,192.7,258.5z"/>
</g>
</svg>
